<svg width="24" height="24" viewBox="0 0 24 24" fill="none" xmlns="http://www.w3.org/2000/svg">
<path d="M2.90132 2.30041L21.7063 8.56841C21.8037 8.60068 21.8887 8.66208 21.95 8.74432C22.0112 8.82655 22.0457 8.92562 22.0488 9.02812C22.0518 9.13061 22.0233 9.23157 21.9671 9.31731C21.9108 9.40304 21.8296 9.46941 21.7343 9.50741L13.0013 13.0004L8.57632 21.8504C8.53129 21.9405 8.46009 22.0149 8.37205 22.0639C8.284 22.1129 8.18322 22.1341 8.08291 22.1248C7.9826 22.1155 7.88743 22.0761 7.80989 22.0118C7.73234 21.9475 7.67602 21.8613 7.64832 21.7644L2.26132 2.91141C2.23637 2.82383 2.23581 2.73109 2.25971 2.64321C2.28361 2.55533 2.33105 2.47565 2.39692 2.41276C2.46279 2.34987 2.54459 2.30617 2.63348 2.28637C2.72238 2.26657 2.81499 2.27143 2.90132 2.30041Z" fill="#1E86E3"/>
</svg>
