<svg width="1110" height="489" viewBox="0 0 1110 489" fill="none" xmlns="http://www.w3.org/2000/svg">
<g opacity="0.3">
<path opacity="0.01" d="M985.019 752.005C933.203 582.316 892.889 471.438 741.59 382.915C590.29 294.392 542.086 308 476.941 161.321C411.797 14.6423 178.718 -99.7221 178.718 -99.7221" stroke="url(#paint0_linear_3333_1500)" stroke-width="1.5"/>
<path opacity="0.0204082" d="M992.543 744.122C935.679 576.161 892.102 466.665 738.833 383.9C585.564 301.135 538.045 316.651 468.646 172.261C399.247 27.8718 163.825 -77.5841 163.825 -77.5841" stroke="url(#paint1_linear_3333_1500)" stroke-width="1.5"/>
<path opacity="0.0408163" d="M1000.22 735.861C938.383 569.815 891.6 461.822 736.559 384.889C581.518 307.956 534.744 325.354 461.182 183.412C387.621 41.47 150.158 -54.9886 150.158 -54.9886" stroke="url(#paint2_linear_3333_1500)" stroke-width="1.5"/>
<path opacity="0.0612245" d="M1008.03 727.216C941.306 563.271 891.379 456.899 734.765 385.864C578.151 314.829 532.181 334.083 454.553 194.743C376.925 55.4024 137.726 -31.9821 137.726 -31.9821" stroke="url(#paint3_linear_3333_1500)" stroke-width="1.5"/>
<path opacity="0.0816327" d="M1015.97 718.183C944.442 556.518 891.436 451.884 733.448 386.806C575.46 321.729 530.352 342.809 448.758 206.221C367.164 69.6334 126.533 -8.61165 126.533 -8.61165" stroke="url(#paint4_linear_3333_1500)" stroke-width="1.5"/>
<path opacity="0.102041" d="M1024.02 708.754C947.786 549.548 891.769 446.767 732.608 387.698C573.447 328.63 529.258 351.503 443.803 217.815C358.348 84.1275 116.59 15.0756 116.59 15.0756" stroke="url(#paint5_linear_3333_1500)" stroke-width="1.5"/>
<path opacity="0.122449" d="M1032.17 698.924C951.322 542.353 892.366 441.536 732.233 388.52C572.1 335.504 528.885 360.137 439.678 229.493C350.471 98.8485 107.891 39.0316 107.891 39.0316" stroke="url(#paint6_linear_3333_1500)" stroke-width="1.5"/>
<path opacity="0.142857" d="M1040.41 688.69C955.047 534.925 893.226 436.182 732.322 389.254C571.418 342.326 529.231 368.683 436.385 241.222C343.539 113.76 100.442 63.2084 100.442 63.2084" stroke="url(#paint7_linear_3333_1500)" stroke-width="1.5"/>
<path opacity="0.163265" d="M1048.71 678.048C958.952 527.257 894.344 430.695 732.87 389.883C571.396 349.071 530.29 377.113 433.921 252.97C337.552 128.827 94.2417 87.559 94.2417 87.559" stroke="url(#paint8_linear_3333_1500)" stroke-width="1.5"/>
<path opacity="0.183673" d="M1057.08 666.992C963.027 519.34 895.713 425.062 733.871 390.387C572.028 355.712 532.053 385.398 432.282 264.705C332.511 144.012 89.2895 112.034 89.2895 112.034" stroke="url(#paint9_linear_3333_1500)" stroke-width="1.5"/>
<path opacity="0.204082" d="M1065.49 655.521C967.265 511.167 897.328 419.274 735.317 390.749C573.306 362.224 534.512 393.511 431.463 276.395C328.413 159.279 85.582 136.586 85.582 136.586" stroke="url(#paint10_linear_3333_1500)" stroke-width="1.5"/>
<path opacity="0.22449" d="M1073.93 643.631C971.656 502.732 899.183 413.322 737.203 390.952C575.223 368.582 537.658 401.426 431.457 288.009C325.255 174.592 83.114 161.167 83.114 161.167" stroke="url(#paint11_linear_3333_1500)" stroke-width="1.5"/>
<path opacity="0.244898" d="M1082.4 631.32C976.191 494.028 901.27 407.197 739.52 390.979C577.77 374.761 541.48 409.115 432.257 299.515C323.034 189.915 81.8796 185.731 81.8796 185.731" stroke="url(#paint12_linear_3333_1500)" stroke-width="1.5"/>
<path opacity="0.265306" d="M1090.87 618.587C980.864 485.049 903.587 400.888 742.264 390.812C580.941 380.736 545.97 416.552 433.859 310.882C321.749 205.212 81.8747 210.23 81.8747 210.23" stroke="url(#paint13_linear_3333_1500)" stroke-width="1.5"/>
<path opacity="0.285714" d="M1099.32 605.431C985.654 475.79 906.114 394.388 745.414 390.436C584.714 386.484 551.105 423.711 436.243 322.079C321.381 220.448 83.0786 234.616 83.0786 234.616" stroke="url(#paint14_linear_3333_1500)" stroke-width="1.5"/>
<path opacity="0.306122" d="M1107.76 591.852C990.566 466.245 908.861 387.687 748.978 389.834C589.096 391.981 556.889 430.567 439.413 333.078C321.938 235.588 85.4964 258.844 85.4964 258.844" stroke="url(#paint15_linear_3333_1500)" stroke-width="1.5"/>
<path opacity="0.326531" d="M1116.16 577.848C995.58 456.409 911.806 380.776 752.933 388.989C594.06 397.202 563.294 437.095 443.347 343.845C323.4 250.595 89.1027 282.867 89.1027 282.867" stroke="url(#paint16_linear_3333_1500)" stroke-width="1.5"/>
<path opacity="0.346939" d="M1124.51 563.421C1000.69 446.277 914.951 373.648 757.278 387.887C599.604 402.126 570.316 443.269 448.041 354.353C325.766 265.436 93.8933 306.639 93.8933 306.639" stroke="url(#paint17_linear_3333_1500)" stroke-width="1.5"/>
<path opacity="0.367347" d="M1132.8 548.57C1005.88 435.845 918.279 366.294 761.993 386.512C605.707 406.73 577.931 449.067 453.474 364.571C329.017 280.076 99.8445 330.115 99.8445 330.115" stroke="url(#paint18_linear_3333_1500)" stroke-width="1.5"/>
<path opacity="0.387755" d="M1141 533.3C1011.15 425.111 921.782 358.708 767.068 384.851C612.354 410.994 586.123 454.465 459.632 374.474C333.142 294.482 106.94 353.251 106.94 353.251" stroke="url(#paint19_linear_3333_1500)" stroke-width="1.5"/>
<path opacity="0.408163" d="M1149.13 517.61C1016.48 414.068 925.463 350.881 772.503 382.887C619.543 414.892 594.887 459.44 466.512 384.029C338.138 308.618 115.174 376.003 115.174 376.003" stroke="url(#paint20_linear_3333_1500)" stroke-width="1.5"/>
<path opacity="0.428571" d="M1157.14 501.49C1021.87 402.703 929.297 342.795 778.27 380.595C627.244 418.395 604.192 463.957 474.084 393.199C343.977 322.441 124.511 398.314 124.511 398.314" stroke="url(#paint21_linear_3333_1500)" stroke-width="1.5"/>
<path opacity="0.44898" d="M1165.04 484.97C1027.29 391.038 933.287 334.468 784.369 377.987C635.452 421.506 614.03 468.022 482.343 401.982C350.655 335.943 134.943 420.168 134.943 420.168" stroke="url(#paint22_linear_3333_1500)" stroke-width="1.5"/>
<path opacity="0.469388" d="M1172.81 468.038C1032.75 379.057 937.416 325.88 790.78 375.036C644.144 424.192 624.376 471.597 491.263 410.337C358.15 349.077 146.441 441.509 146.441 441.509" stroke="url(#paint23_linear_3333_1500)" stroke-width="1.5"/>
<path opacity="0.489796" d="M1180.43 450.702C1038.23 366.76 941.682 317.028 797.496 371.732C653.31 426.436 635.219 474.668 500.835 418.242C366.451 361.816 158.987 462.3 158.987 462.3" stroke="url(#paint24_linear_3333_1500)" stroke-width="1.5"/>
<path opacity="0.510204" d="M1187.91 432.964C1043.73 354.145 946.076 307.905 804.505 368.062C662.934 428.219 646.538 477.211 511.04 425.669C375.543 374.126 172.561 482.497 172.561 482.497" stroke="url(#paint25_linear_3333_1500)" stroke-width="1.5"/>
<path opacity="0.530612" d="M1195.22 414.828C1049.23 341.21 950.581 298.505 811.785 364.013C672.989 429.522 658.307 479.209 521.852 432.594C385.397 385.979 187.127 502.062 187.127 502.062" stroke="url(#paint26_linear_3333_1500)" stroke-width="1.5"/>
<path opacity="0.55102" d="M1202.35 396.302C1054.72 327.955 955.194 288.824 819.33 359.576C683.466 430.329 670.512 480.644 533.257 438.994C396.003 397.345 202.667 520.957 202.667 520.957" stroke="url(#paint27_linear_3333_1500)" stroke-width="1.5"/>
<path opacity="0.571429" d="M1209.29 377.391C1060.18 314.381 959.898 278.858 827.118 354.742C694.337 430.625 683.124 481.501 545.228 444.848C407.332 408.196 219.146 539.147 219.146 539.147" stroke="url(#paint28_linear_3333_1500)" stroke-width="1.5"/>
<path opacity="0.591837" d="M1216.02 358.1C1065.62 300.485 964.683 268.602 835.134 349.497C705.584 430.391 696.123 481.76 557.743 450.131C419.364 418.502 236.535 556.592 236.535 556.592" stroke="url(#paint29_linear_3333_1500)" stroke-width="1.5"/>
<path opacity="0.612245" d="M1222.55 338.438C1071.01 286.272 969.55 258.055 843.375 343.836C717.199 429.617 709.497 481.409 570.792 454.825C432.088 428.241 254.817 573.262 254.817 573.262" stroke="url(#paint30_linear_3333_1500)" stroke-width="1.5"/>
<path opacity="0.632653" d="M1228.84 318.411C1076.36 271.739 974.478 247.211 851.814 337.748C729.15 428.285 723.213 480.433 584.342 458.907C445.47 437.382 273.949 589.12 273.949 589.12" stroke="url(#paint31_linear_3333_1500)" stroke-width="1.5"/>
<path opacity="0.653061" d="M1234.9 298.027C1081.64 256.89 979.46 236.068 860.44 331.225C741.421 426.382 737.253 478.817 598.372 462.36C459.491 445.902 293.904 604.133 293.904 604.133" stroke="url(#paint32_linear_3333_1500)" stroke-width="1.5"/>
<path opacity="0.673469" d="M1240.71 277.295C1086.84 241.726 984.487 224.624 869.238 324.261C753.99 423.898 751.592 476.55 612.859 465.163C474.127 453.777 314.649 618.272 314.649 618.272" stroke="url(#paint33_linear_3333_1500)" stroke-width="1.5"/>
<path opacity="0.693878" d="M1246.27 256.223C1091.97 226.249 989.547 212.877 878.192 316.848C766.838 420.819 766.209 473.618 627.781 467.301C489.352 460.983 336.151 631.506 336.151 631.506" stroke="url(#paint34_linear_3333_1500)" stroke-width="1.5"/>
<path opacity="0.714286" d="M1251.55 234.82C1097 210.462 994.63 200.826 887.286 308.981C779.942 417.136 781.079 470.013 643.111 468.755C505.143 467.498 358.376 643.806 358.376 643.806" stroke="url(#paint35_linear_3333_1500)" stroke-width="1.5"/>
<path opacity="0.734694" d="M1256.56 213.095C1101.94 194.369 999.731 188.468 896.508 300.653C793.286 412.837 796.182 465.723 658.829 469.511C521.476 473.3 381.294 655.144 381.294 655.144" stroke="url(#paint36_linear_3333_1500)" stroke-width="1.5"/>
<path opacity="0.755102" d="M1261.29 191.06C1106.76 177.973 1004.83 175.805 905.835 291.86C806.84 407.916 811.488 460.74 674.903 469.556C538.318 478.371 404.861 665.497 404.861 665.497" stroke="url(#paint37_linear_3333_1500)" stroke-width="1.5"/>
<path opacity="0.77551" d="M1265.71 168.722C1111.45 161.276 1009.92 162.834 915.254 282.597C820.586 402.36 826.975 455.055 691.311 468.871C555.646 482.688 429.046 674.836 429.046 674.836" stroke="url(#paint38_linear_3333_1500)" stroke-width="1.5"/>
<path opacity="0.795918" d="M1269.84 146.093C1116.02 144.282 1015 149.554 924.754 272.859C834.505 396.164 842.623 448.66 708.03 467.447C573.437 486.233 453.814 683.139 453.814 683.139" stroke="url(#paint39_linear_3333_1500)" stroke-width="1.5"/>
<path opacity="0.816327" d="M1273.64 123.185C1120.45 127 1020.05 135.97 934.309 262.647C848.569 389.323 858.401 441.552 725.028 465.272C591.654 488.993 479.123 690.386 479.123 690.386" stroke="url(#paint40_linear_3333_1500)" stroke-width="1.5"/>
<path opacity="0.836735" d="M1277.13 100.009C1124.72 109.431 1025.05 122.08 943.904 251.954C862.754 381.828 874.283 433.722 742.277 462.335C610.27 490.948 504.933 696.555 504.933 696.555" stroke="url(#paint41_linear_3333_1500)" stroke-width="1.5"/>
<path opacity="0.857143" d="M1280.29 76.5751C1128.85 91.5821 1030.02 107.885 953.536 240.781C877.051 373.676 890.258 425.168 759.763 458.626C629.268 492.083 531.219 701.627 531.219 701.627" stroke="url(#paint42_linear_3333_1500)" stroke-width="1.5"/>
<path opacity="0.877551" d="M1283.11 52.8964C1132.79 73.4578 1034.92 93.3872 963.171 229.125C891.42 364.863 906.284 415.886 777.444 454.136C648.604 492.386 557.926 705.584 557.926 705.584" stroke="url(#paint43_linear_3333_1500)" stroke-width="1.5"/>
<path opacity="0.897959" d="M1285.59 28.9859C1136.57 55.0658 1039.76 78.5897 972.809 216.988C905.857 355.386 922.353 405.875 795.308 448.859C668.263 491.843 585.031 708.412 585.031 708.412" stroke="url(#paint44_linear_3333_1500)" stroke-width="1.5"/>
<path opacity="0.918367" d="M1287.72 4.85427C1140.17 36.4103 1044.52 63.4926 982.423 204.367C920.326 345.241 938.429 395.13 813.317 442.786C688.205 490.441 612.484 710.094 612.484 710.094" stroke="url(#paint45_linear_3333_1500)" stroke-width="1.5"/>
<path opacity="0.938776" d="M1289.5 -19.485C1143.57 17.4991 1049.19 48.1 992.001 191.264C934.809 334.428 954.492 383.654 831.448 435.912C708.404 488.171 640.249 710.618 640.249 710.618" stroke="url(#paint46_linear_3333_1500)" stroke-width="1.5"/>
<path opacity="0.959184" d="M1290.92 -44.0176C1146.77 -1.65985 1053.77 32.4159 1001.53 177.682C949.288 322.947 970.521 371.446 849.678 428.235C728.834 485.023 668.29 709.973 668.29 709.973" stroke="url(#paint47_linear_3333_1500)" stroke-width="1.5"/>
<path opacity="0.979592" d="M1291.97 -68.7334C1149.77 -21.062 1058.24 16.441 1010.99 163.619C963.733 310.796 986.485 358.506 867.971 419.747C749.458 480.987 696.559 708.147 696.559 708.147" stroke="url(#paint48_linear_3333_1500)" stroke-width="1.5"/>
<path d="M1292.66 -93.6159C1152.55 -40.6968 1062.6 0.182261 1020.36 149.08C978.126 297.978 1002.36 344.839 886.306 410.449C770.25 476.059 725.022 705.134 725.022 705.134" stroke="url(#paint49_linear_3333_1500)" stroke-width="1.5"/>
</g>
<defs>
<linearGradient id="paint0_linear_3333_1500" x1="649.086" y1="173.651" x2="482.667" y2="458.088" gradientUnits="userSpaceOnUse">
<stop stop-color="white" stop-opacity="0"/>
<stop offset="0.302083" stop-color="#C65398" stop-opacity="0.7"/>
<stop offset="0.526042" stop-color="#8675F3" stop-opacity="0.8"/>
<stop offset="0.776042" stop-color="#2788DE"/>
<stop offset="1" stop-color="white" stop-opacity="0"/>
</linearGradient>
<linearGradient id="paint1_linear_3333_1500" x1="640.258" y1="177.886" x2="483.056" y2="469" gradientUnits="userSpaceOnUse">
<stop stop-color="white" stop-opacity="0"/>
<stop offset="0.302083" stop-color="#C65398" stop-opacity="0.7"/>
<stop offset="0.526042" stop-color="#8675F3" stop-opacity="0.8"/>
<stop offset="0.776042" stop-color="#2788DE"/>
<stop offset="1" stop-color="white" stop-opacity="0"/>
</linearGradient>
<linearGradient id="paint2_linear_3333_1500" x1="632.042" y1="182.349" x2="484.393" y2="479.902" gradientUnits="userSpaceOnUse">
<stop stop-color="white" stop-opacity="0"/>
<stop offset="0.302083" stop-color="#C65398" stop-opacity="0.7"/>
<stop offset="0.526042" stop-color="#8675F3" stop-opacity="0.8"/>
<stop offset="0.776042" stop-color="#2788DE"/>
<stop offset="1" stop-color="white" stop-opacity="0"/>
</linearGradient>
<linearGradient id="paint3_linear_3333_1500" x1="624.443" y1="187.019" x2="486.681" y2="490.751" gradientUnits="userSpaceOnUse">
<stop stop-color="white" stop-opacity="0"/>
<stop offset="0.302083" stop-color="#C65398" stop-opacity="0.7"/>
<stop offset="0.526042" stop-color="#8675F3" stop-opacity="0.8"/>
<stop offset="0.776042" stop-color="#2788DE"/>
<stop offset="1" stop-color="white" stop-opacity="0"/>
</linearGradient>
<linearGradient id="paint4_linear_3333_1500" x1="617.464" y1="191.872" x2="489.925" y2="501.498" gradientUnits="userSpaceOnUse">
<stop stop-color="white" stop-opacity="0"/>
<stop offset="0.302083" stop-color="#C65398" stop-opacity="0.7"/>
<stop offset="0.526042" stop-color="#8675F3" stop-opacity="0.8"/>
<stop offset="0.776042" stop-color="#2788DE"/>
<stop offset="1" stop-color="white" stop-opacity="0"/>
</linearGradient>
<linearGradient id="paint5_linear_3333_1500" x1="611.111" y1="196.884" x2="494.128" y2="512.097" gradientUnits="userSpaceOnUse">
<stop stop-color="white" stop-opacity="0"/>
<stop offset="0.302083" stop-color="#C65398" stop-opacity="0.7"/>
<stop offset="0.526042" stop-color="#8675F3" stop-opacity="0.8"/>
<stop offset="0.776042" stop-color="#2788DE"/>
<stop offset="1" stop-color="white" stop-opacity="0"/>
</linearGradient>
<linearGradient id="paint6_linear_3333_1500" x1="605.378" y1="202.032" x2="499.28" y2="522.497" gradientUnits="userSpaceOnUse">
<stop stop-color="white" stop-opacity="0"/>
<stop offset="0.302083" stop-color="#C65398" stop-opacity="0.7"/>
<stop offset="0.526042" stop-color="#8675F3" stop-opacity="0.8"/>
<stop offset="0.776042" stop-color="#2788DE"/>
<stop offset="1" stop-color="white" stop-opacity="0"/>
</linearGradient>
<linearGradient id="paint7_linear_3333_1500" x1="600.27" y1="207.291" x2="505.379" y2="532.648" gradientUnits="userSpaceOnUse">
<stop stop-color="white" stop-opacity="0"/>
<stop offset="0.302083" stop-color="#C65398" stop-opacity="0.7"/>
<stop offset="0.526042" stop-color="#8675F3" stop-opacity="0.8"/>
<stop offset="0.776042" stop-color="#2788DE"/>
<stop offset="1" stop-color="white" stop-opacity="0"/>
</linearGradient>
<linearGradient id="paint8_linear_3333_1500" x1="595.786" y1="212.638" x2="512.415" y2="542.502" gradientUnits="userSpaceOnUse">
<stop stop-color="white" stop-opacity="0"/>
<stop offset="0.302083" stop-color="#C65398" stop-opacity="0.7"/>
<stop offset="0.526042" stop-color="#8675F3" stop-opacity="0.8"/>
<stop offset="0.776042" stop-color="#2788DE"/>
<stop offset="1" stop-color="white" stop-opacity="0"/>
</linearGradient>
<linearGradient id="paint9_linear_3333_1500" x1="591.926" y1="218.048" x2="520.376" y2="552.004" gradientUnits="userSpaceOnUse">
<stop stop-color="white" stop-opacity="0"/>
<stop offset="0.302083" stop-color="#C65398" stop-opacity="0.7"/>
<stop offset="0.526042" stop-color="#8675F3" stop-opacity="0.8"/>
<stop offset="0.776042" stop-color="#2788DE"/>
<stop offset="1" stop-color="white" stop-opacity="0"/>
</linearGradient>
<linearGradient id="paint10_linear_3333_1500" x1="588.688" y1="223.498" x2="529.246" y2="561.105" gradientUnits="userSpaceOnUse">
<stop stop-color="white" stop-opacity="0"/>
<stop offset="0.302083" stop-color="#C65398" stop-opacity="0.7"/>
<stop offset="0.526042" stop-color="#8675F3" stop-opacity="0.8"/>
<stop offset="0.776042" stop-color="#2788DE"/>
<stop offset="1" stop-color="white" stop-opacity="0"/>
</linearGradient>
<linearGradient id="paint11_linear_3333_1500" x1="586.07" y1="228.963" x2="539.004" y2="569.754" gradientUnits="userSpaceOnUse">
<stop stop-color="white" stop-opacity="0"/>
<stop offset="0.302083" stop-color="#C65398" stop-opacity="0.7"/>
<stop offset="0.526042" stop-color="#8675F3" stop-opacity="0.8"/>
<stop offset="0.776042" stop-color="#2788DE"/>
<stop offset="1" stop-color="white" stop-opacity="0"/>
</linearGradient>
<linearGradient id="paint12_linear_3333_1500" x1="584.068" y1="234.42" x2="549.628" y2="577.901" gradientUnits="userSpaceOnUse">
<stop stop-color="white" stop-opacity="0"/>
<stop offset="0.302083" stop-color="#C65398" stop-opacity="0.7"/>
<stop offset="0.526042" stop-color="#8675F3" stop-opacity="0.8"/>
<stop offset="0.776042" stop-color="#2788DE"/>
<stop offset="1" stop-color="white" stop-opacity="0"/>
</linearGradient>
<linearGradient id="paint13_linear_3333_1500" x1="582.683" y1="239.846" x2="561.094" y2="585.498" gradientUnits="userSpaceOnUse">
<stop stop-color="white" stop-opacity="0"/>
<stop offset="0.302083" stop-color="#C65398" stop-opacity="0.7"/>
<stop offset="0.526042" stop-color="#8675F3" stop-opacity="0.8"/>
<stop offset="0.776042" stop-color="#2788DE"/>
<stop offset="1" stop-color="white" stop-opacity="0"/>
</linearGradient>
<linearGradient id="paint14_linear_3333_1500" x1="581.899" y1="245.217" x2="573.359" y2="592.497" gradientUnits="userSpaceOnUse">
<stop stop-color="white" stop-opacity="0"/>
<stop offset="0.302083" stop-color="#C65398" stop-opacity="0.7"/>
<stop offset="0.526042" stop-color="#8675F3" stop-opacity="0.8"/>
<stop offset="0.776042" stop-color="#2788DE"/>
<stop offset="1" stop-color="white" stop-opacity="0"/>
</linearGradient>
<linearGradient id="paint15_linear_3333_1500" x1="581.726" y1="250.51" x2="586.403" y2="598.853" gradientUnits="userSpaceOnUse">
<stop stop-color="white" stop-opacity="0"/>
<stop offset="0.302083" stop-color="#C65398" stop-opacity="0.7"/>
<stop offset="0.526042" stop-color="#8675F3" stop-opacity="0.8"/>
<stop offset="0.776042" stop-color="#2788DE"/>
<stop offset="1" stop-color="white" stop-opacity="0"/>
</linearGradient>
<linearGradient id="paint16_linear_3333_1500" x1="582.145" y1="255.701" x2="600.178" y2="604.523" gradientUnits="userSpaceOnUse">
<stop stop-color="white" stop-opacity="0"/>
<stop offset="0.302083" stop-color="#C65398" stop-opacity="0.7"/>
<stop offset="0.526042" stop-color="#8675F3" stop-opacity="0.8"/>
<stop offset="0.776042" stop-color="#2788DE"/>
<stop offset="1" stop-color="white" stop-opacity="0"/>
</linearGradient>
<linearGradient id="paint17_linear_3333_1500" x1="583.158" y1="260.767" x2="614.649" y2="609.466" gradientUnits="userSpaceOnUse">
<stop stop-color="white" stop-opacity="0"/>
<stop offset="0.302083" stop-color="#C65398" stop-opacity="0.7"/>
<stop offset="0.526042" stop-color="#8675F3" stop-opacity="0.8"/>
<stop offset="0.776042" stop-color="#2788DE"/>
<stop offset="1" stop-color="white" stop-opacity="0"/>
</linearGradient>
<linearGradient id="paint18_linear_3333_1500" x1="584.75" y1="265.687" x2="629.765" y2="613.646" gradientUnits="userSpaceOnUse">
<stop stop-color="white" stop-opacity="0"/>
<stop offset="0.302083" stop-color="#C65398" stop-opacity="0.7"/>
<stop offset="0.526042" stop-color="#8675F3" stop-opacity="0.8"/>
<stop offset="0.776042" stop-color="#2788DE"/>
<stop offset="1" stop-color="white" stop-opacity="0"/>
</linearGradient>
<linearGradient id="paint19_linear_3333_1500" x1="586.912" y1="270.438" x2="645.478" y2="617.031" gradientUnits="userSpaceOnUse">
<stop stop-color="white" stop-opacity="0"/>
<stop offset="0.302083" stop-color="#C65398" stop-opacity="0.7"/>
<stop offset="0.526042" stop-color="#8675F3" stop-opacity="0.8"/>
<stop offset="0.776042" stop-color="#2788DE"/>
<stop offset="1" stop-color="white" stop-opacity="0"/>
</linearGradient>
<linearGradient id="paint20_linear_3333_1500" x1="589.648" y1="274.998" x2="661.751" y2="619.589" gradientUnits="userSpaceOnUse">
<stop stop-color="white" stop-opacity="0"/>
<stop offset="0.302083" stop-color="#C65398" stop-opacity="0.7"/>
<stop offset="0.526042" stop-color="#8675F3" stop-opacity="0.8"/>
<stop offset="0.776042" stop-color="#2788DE"/>
<stop offset="1" stop-color="white" stop-opacity="0"/>
</linearGradient>
<linearGradient id="paint21_linear_3333_1500" x1="592.931" y1="279.331" x2="678.517" y2="621.282" gradientUnits="userSpaceOnUse">
<stop stop-color="white" stop-opacity="0"/>
<stop offset="0.302083" stop-color="#C65398" stop-opacity="0.7"/>
<stop offset="0.526042" stop-color="#8675F3" stop-opacity="0.8"/>
<stop offset="0.776042" stop-color="#2788DE"/>
<stop offset="1" stop-color="white" stop-opacity="0"/>
</linearGradient>
<linearGradient id="paint22_linear_3333_1500" x1="596.764" y1="283.445" x2="695.736" y2="622.117" gradientUnits="userSpaceOnUse">
<stop stop-color="white" stop-opacity="0"/>
<stop offset="0.302083" stop-color="#C65398" stop-opacity="0.7"/>
<stop offset="0.526042" stop-color="#8675F3" stop-opacity="0.8"/>
<stop offset="0.776042" stop-color="#2788DE"/>
<stop offset="1" stop-color="white" stop-opacity="0"/>
</linearGradient>
<linearGradient id="paint23_linear_3333_1500" x1="601.129" y1="287.302" x2="713.347" y2="622.059" gradientUnits="userSpaceOnUse">
<stop stop-color="white" stop-opacity="0"/>
<stop offset="0.302083" stop-color="#C65398" stop-opacity="0.7"/>
<stop offset="0.526042" stop-color="#8675F3" stop-opacity="0.8"/>
<stop offset="0.776042" stop-color="#2788DE"/>
<stop offset="1" stop-color="white" stop-opacity="0"/>
</linearGradient>
<linearGradient id="paint24_linear_3333_1500" x1="606.02" y1="290.885" x2="731.304" y2="621.102" gradientUnits="userSpaceOnUse">
<stop stop-color="white" stop-opacity="0"/>
<stop offset="0.302083" stop-color="#C65398" stop-opacity="0.7"/>
<stop offset="0.526042" stop-color="#8675F3" stop-opacity="0.8"/>
<stop offset="0.776042" stop-color="#2788DE"/>
<stop offset="1" stop-color="white" stop-opacity="0"/>
</linearGradient>
<linearGradient id="paint25_linear_3333_1500" x1="611.427" y1="294.172" x2="749.553" y2="619.233" gradientUnits="userSpaceOnUse">
<stop stop-color="white" stop-opacity="0"/>
<stop offset="0.302083" stop-color="#C65398" stop-opacity="0.7"/>
<stop offset="0.526042" stop-color="#8675F3" stop-opacity="0.8"/>
<stop offset="0.776042" stop-color="#2788DE"/>
<stop offset="1" stop-color="white" stop-opacity="0"/>
</linearGradient>
<linearGradient id="paint26_linear_3333_1500" x1="617.328" y1="297.144" x2="768.034" y2="616.451" gradientUnits="userSpaceOnUse">
<stop stop-color="white" stop-opacity="0"/>
<stop offset="0.302083" stop-color="#C65398" stop-opacity="0.7"/>
<stop offset="0.526042" stop-color="#8675F3" stop-opacity="0.8"/>
<stop offset="0.776042" stop-color="#2788DE"/>
<stop offset="1" stop-color="white" stop-opacity="0"/>
</linearGradient>
<linearGradient id="paint27_linear_3333_1500" x1="623.719" y1="299.782" x2="786.704" y2="612.756" gradientUnits="userSpaceOnUse">
<stop stop-color="white" stop-opacity="0"/>
<stop offset="0.302083" stop-color="#C65398" stop-opacity="0.7"/>
<stop offset="0.526042" stop-color="#8675F3" stop-opacity="0.8"/>
<stop offset="0.776042" stop-color="#2788DE"/>
<stop offset="1" stop-color="white" stop-opacity="0"/>
</linearGradient>
<linearGradient id="paint28_linear_3333_1500" x1="630.578" y1="302.069" x2="805.504" y2="608.154" gradientUnits="userSpaceOnUse">
<stop stop-color="white" stop-opacity="0"/>
<stop offset="0.302083" stop-color="#C65398" stop-opacity="0.7"/>
<stop offset="0.526042" stop-color="#8675F3" stop-opacity="0.8"/>
<stop offset="0.776042" stop-color="#2788DE"/>
<stop offset="1" stop-color="white" stop-opacity="0"/>
</linearGradient>
<linearGradient id="paint29_linear_3333_1500" x1="637.891" y1="303.983" x2="824.387" y2="602.649" gradientUnits="userSpaceOnUse">
<stop stop-color="white" stop-opacity="0"/>
<stop offset="0.302083" stop-color="#C65398" stop-opacity="0.7"/>
<stop offset="0.526042" stop-color="#8675F3" stop-opacity="0.8"/>
<stop offset="0.776042" stop-color="#2788DE"/>
<stop offset="1" stop-color="white" stop-opacity="0"/>
</linearGradient>
<linearGradient id="paint30_linear_3333_1500" x1="645.654" y1="305.512" x2="843.319" y2="596.258" gradientUnits="userSpaceOnUse">
<stop stop-color="white" stop-opacity="0"/>
<stop offset="0.302083" stop-color="#C65398" stop-opacity="0.7"/>
<stop offset="0.526042" stop-color="#8675F3" stop-opacity="0.8"/>
<stop offset="0.776042" stop-color="#2788DE"/>
<stop offset="1" stop-color="white" stop-opacity="0"/>
</linearGradient>
<linearGradient id="paint31_linear_3333_1500" x1="653.841" y1="306.634" x2="862.246" y2="588.992" gradientUnits="userSpaceOnUse">
<stop stop-color="white" stop-opacity="0"/>
<stop offset="0.302083" stop-color="#C65398" stop-opacity="0.7"/>
<stop offset="0.526042" stop-color="#8675F3" stop-opacity="0.8"/>
<stop offset="0.776042" stop-color="#2788DE"/>
<stop offset="1" stop-color="white" stop-opacity="0"/>
</linearGradient>
<linearGradient id="paint32_linear_3333_1500" x1="662.44" y1="307.336" x2="881.131" y2="580.869" gradientUnits="userSpaceOnUse">
<stop stop-color="white" stop-opacity="0"/>
<stop offset="0.302083" stop-color="#C65398" stop-opacity="0.7"/>
<stop offset="0.526042" stop-color="#8675F3" stop-opacity="0.8"/>
<stop offset="0.776042" stop-color="#2788DE"/>
<stop offset="1" stop-color="white" stop-opacity="0"/>
</linearGradient>
<linearGradient id="paint33_linear_3333_1500" x1="671.434" y1="307.601" x2="899.939" y2="571.908" gradientUnits="userSpaceOnUse">
<stop stop-color="white" stop-opacity="0"/>
<stop offset="0.302083" stop-color="#C65398" stop-opacity="0.7"/>
<stop offset="0.526042" stop-color="#8675F3" stop-opacity="0.8"/>
<stop offset="0.776042" stop-color="#2788DE"/>
<stop offset="1" stop-color="white" stop-opacity="0"/>
</linearGradient>
<linearGradient id="paint34_linear_3333_1500" x1="680.808" y1="307.415" x2="918.635" y2="562.13" gradientUnits="userSpaceOnUse">
<stop stop-color="white" stop-opacity="0"/>
<stop offset="0.302083" stop-color="#C65398" stop-opacity="0.7"/>
<stop offset="0.526042" stop-color="#8675F3" stop-opacity="0.8"/>
<stop offset="0.776042" stop-color="#2788DE"/>
<stop offset="1" stop-color="white" stop-opacity="0"/>
</linearGradient>
<linearGradient id="paint35_linear_3333_1500" x1="690.544" y1="306.762" x2="937.19" y2="551.557" gradientUnits="userSpaceOnUse">
<stop stop-color="white" stop-opacity="0"/>
<stop offset="0.302083" stop-color="#C65398" stop-opacity="0.7"/>
<stop offset="0.526042" stop-color="#8675F3" stop-opacity="0.8"/>
<stop offset="0.776042" stop-color="#2788DE"/>
<stop offset="1" stop-color="white" stop-opacity="0"/>
</linearGradient>
<linearGradient id="paint36_linear_3333_1500" x1="700.629" y1="305.629" x2="955.58" y2="540.212" gradientUnits="userSpaceOnUse">
<stop stop-color="white" stop-opacity="0"/>
<stop offset="0.302083" stop-color="#C65398" stop-opacity="0.7"/>
<stop offset="0.526042" stop-color="#8675F3" stop-opacity="0.8"/>
<stop offset="0.776042" stop-color="#2788DE"/>
<stop offset="1" stop-color="white" stop-opacity="0"/>
</linearGradient>
<linearGradient id="paint37_linear_3333_1500" x1="711.037" y1="304.005" x2="973.773" y2="528.119" gradientUnits="userSpaceOnUse">
<stop stop-color="white" stop-opacity="0"/>
<stop offset="0.302083" stop-color="#C65398" stop-opacity="0.7"/>
<stop offset="0.526042" stop-color="#8675F3" stop-opacity="0.8"/>
<stop offset="0.776042" stop-color="#2788DE"/>
<stop offset="1" stop-color="white" stop-opacity="0"/>
</linearGradient>
<linearGradient id="paint38_linear_3333_1500" x1="721.755" y1="301.874" x2="991.754" y2="515.299" gradientUnits="userSpaceOnUse">
<stop stop-color="white" stop-opacity="0"/>
<stop offset="0.302083" stop-color="#C65398" stop-opacity="0.7"/>
<stop offset="0.526042" stop-color="#8675F3" stop-opacity="0.8"/>
<stop offset="0.776042" stop-color="#2788DE"/>
<stop offset="1" stop-color="white" stop-opacity="0"/>
</linearGradient>
<linearGradient id="paint39_linear_3333_1500" x1="732.768" y1="299.225" x2="1009.51" y2="501.775" gradientUnits="userSpaceOnUse">
<stop stop-color="white" stop-opacity="0"/>
<stop offset="0.302083" stop-color="#C65398" stop-opacity="0.7"/>
<stop offset="0.526042" stop-color="#8675F3" stop-opacity="0.8"/>
<stop offset="0.776042" stop-color="#2788DE"/>
<stop offset="1" stop-color="white" stop-opacity="0"/>
</linearGradient>
<linearGradient id="paint40_linear_3333_1500" x1="744.049" y1="296.05" x2="1027.01" y2="487.572" gradientUnits="userSpaceOnUse">
<stop stop-color="white" stop-opacity="0"/>
<stop offset="0.302083" stop-color="#C65398" stop-opacity="0.7"/>
<stop offset="0.526042" stop-color="#8675F3" stop-opacity="0.8"/>
<stop offset="0.776042" stop-color="#2788DE"/>
<stop offset="1" stop-color="white" stop-opacity="0"/>
</linearGradient>
<linearGradient id="paint41_linear_3333_1500" x1="755.58" y1="292.336" x2="1044.25" y2="472.708" gradientUnits="userSpaceOnUse">
<stop stop-color="white" stop-opacity="0"/>
<stop offset="0.302083" stop-color="#C65398" stop-opacity="0.7"/>
<stop offset="0.526042" stop-color="#8675F3" stop-opacity="0.8"/>
<stop offset="0.776042" stop-color="#2788DE"/>
<stop offset="1" stop-color="white" stop-opacity="0"/>
</linearGradient>
<linearGradient id="paint42_linear_3333_1500" x1="767.353" y1="288.074" x2="1061.23" y2="457.206" gradientUnits="userSpaceOnUse">
<stop stop-color="white" stop-opacity="0"/>
<stop offset="0.302083" stop-color="#C65398" stop-opacity="0.7"/>
<stop offset="0.526042" stop-color="#8675F3" stop-opacity="0.8"/>
<stop offset="0.776042" stop-color="#2788DE"/>
<stop offset="1" stop-color="white" stop-opacity="0"/>
</linearGradient>
<linearGradient id="paint43_linear_3333_1500" x1="779.334" y1="283.256" x2="1077.91" y2="441.084" gradientUnits="userSpaceOnUse">
<stop stop-color="white" stop-opacity="0"/>
<stop offset="0.302083" stop-color="#C65398" stop-opacity="0.7"/>
<stop offset="0.526042" stop-color="#8675F3" stop-opacity="0.8"/>
<stop offset="0.776042" stop-color="#2788DE"/>
<stop offset="1" stop-color="white" stop-opacity="0"/>
</linearGradient>
<linearGradient id="paint44_linear_3333_1500" x1="791.519" y1="277.874" x2="1094.32" y2="424.361" gradientUnits="userSpaceOnUse">
<stop stop-color="white" stop-opacity="0"/>
<stop offset="0.302083" stop-color="#C65398" stop-opacity="0.7"/>
<stop offset="0.526042" stop-color="#8675F3" stop-opacity="0.8"/>
<stop offset="0.776042" stop-color="#2788DE"/>
<stop offset="1" stop-color="white" stop-opacity="0"/>
</linearGradient>
<linearGradient id="paint45_linear_3333_1500" x1="803.876" y1="271.919" x2="1110.44" y2="407.05" gradientUnits="userSpaceOnUse">
<stop stop-color="white" stop-opacity="0"/>
<stop offset="0.302083" stop-color="#C65398" stop-opacity="0.7"/>
<stop offset="0.526042" stop-color="#8675F3" stop-opacity="0.8"/>
<stop offset="0.776042" stop-color="#2788DE"/>
<stop offset="1" stop-color="white" stop-opacity="0"/>
</linearGradient>
<linearGradient id="paint46_linear_3333_1500" x1="816.39" y1="265.385" x2="1126.25" y2="389.17" gradientUnits="userSpaceOnUse">
<stop stop-color="white" stop-opacity="0"/>
<stop offset="0.302083" stop-color="#C65398" stop-opacity="0.7"/>
<stop offset="0.526042" stop-color="#8675F3" stop-opacity="0.8"/>
<stop offset="0.776042" stop-color="#2788DE"/>
<stop offset="1" stop-color="white" stop-opacity="0"/>
</linearGradient>
<linearGradient id="paint47_linear_3333_1500" x1="829.045" y1="258.268" x2="1141.76" y2="370.732" gradientUnits="userSpaceOnUse">
<stop stop-color="white" stop-opacity="0"/>
<stop offset="0.302083" stop-color="#C65398" stop-opacity="0.7"/>
<stop offset="0.526042" stop-color="#8675F3" stop-opacity="0.8"/>
<stop offset="0.776042" stop-color="#2788DE"/>
<stop offset="1" stop-color="white" stop-opacity="0"/>
</linearGradient>
<linearGradient id="paint48_linear_3333_1500" x1="841.814" y1="250.559" x2="1156.97" y2="351.748" gradientUnits="userSpaceOnUse">
<stop stop-color="white" stop-opacity="0"/>
<stop offset="0.302083" stop-color="#C65398" stop-opacity="0.7"/>
<stop offset="0.526042" stop-color="#8675F3" stop-opacity="0.8"/>
<stop offset="0.776042" stop-color="#2788DE"/>
<stop offset="1" stop-color="white" stop-opacity="0"/>
</linearGradient>
<linearGradient id="paint49_linear_3333_1500" x1="854.68" y1="242.259" x2="1171.86" y2="332.231" gradientUnits="userSpaceOnUse">
<stop stop-color="white" stop-opacity="0"/>
<stop offset="0.302083" stop-color="#C65398" stop-opacity="0.7"/>
<stop offset="0.526042" stop-color="#8675F3" stop-opacity="0.8"/>
<stop offset="0.776042" stop-color="#2788DE"/>
<stop offset="1" stop-color="white" stop-opacity="0"/>
</linearGradient>
</defs>
</svg>
