<svg width="336" height="379" viewBox="0 0 336 379" fill="none" xmlns="http://www.w3.org/2000/svg">
<g opacity="0.5">
<mask id="mask0_3333_1690" style="mask-type:alpha" maskUnits="userSpaceOnUse" x="-238" y="-73" width="644" height="551">
<path d="M402.212 260.629C407.859 251.136 404.742 238.862 395.249 233.215L-114.037 -69.7739C-123.53 -75.4215 -135.803 -72.3043 -141.451 -62.8115L-234.462 93.5291C-240.11 103.022 -236.993 115.296 -227.5 120.943L-49.1444 227.052C-42.5971 230.947 -38.8314 238.223 -39.4325 245.818L-42.6254 286.161C-43.2265 293.755 -39.4607 301.032 -32.9135 304.927L251.811 474.317C261.303 479.965 273.577 476.848 279.225 467.355L402.212 260.629Z" fill="#C4C4C4"/>
</mask>
<g mask="url(#mask0_3333_1690)">
<g opacity="0.3">
<path opacity="0.01" d="M129.745 569.493C153.597 472.16 166.048 406.696 118.169 320.033C70.2905 233.369 42.9618 226.054 53.6987 136.042C64.4356 46.0292 -15.677 -76.7946 -15.677 -76.7946" stroke="url(#paint0_linear_3333_1690)" stroke-width="1.5"/>
<path opacity="0.0204082" d="M135.677 567.839C156.579 469.887 167.048 404.152 116.55 319.714C66.0527 235.277 38.5054 229.086 46.5159 138.956C54.5264 48.8262 -29.2963 -70.35 -29.2963 -70.35" stroke="url(#paint1_linear_3333_1690)" stroke-width="1.5"/>
<path opacity="0.0408163" d="M141.788 566.045C159.723 467.588 168.202 401.656 115.16 319.538C62.1181 237.42 34.3888 232.358 39.6719 142.214C44.955 52.0695 -42.4564 -63.3286 -42.4564 -63.3286" stroke="url(#paint2_linear_3333_1690)" stroke-width="1.5"/>
<path opacity="0.0612245" d="M148.072 564.106C163.028 465.255 169.511 399.202 114.003 319.493C58.4939 239.784 30.6191 235.855 33.177 145.799C35.7349 55.7436 -55.1399 -55.7512 -55.1399 -55.7512" stroke="url(#paint3_linear_3333_1690)" stroke-width="1.5"/>
<path opacity="0.0816327" d="M154.537 562.013C166.503 462.882 170.99 396.784 113.094 319.57C55.1982 242.356 27.2145 239.562 27.0524 149.698C26.8903 59.8329 -67.3189 -47.639 -67.3189 -47.639" stroke="url(#paint4_linear_3333_1690)" stroke-width="1.5"/>
<path opacity="0.102041" d="M161.17 559.763C170.14 460.466 172.631 394.398 112.43 319.762C52.2294 245.126 24.1736 243.467 21.2999 153.895C18.4263 64.3234 -78.9848 -39.0115 -78.9848 -39.0115" stroke="url(#paint5_linear_3333_1690)" stroke-width="1.5"/>
<path opacity="0.122449" d="M167.964 557.344C173.934 457.994 174.43 392.03 112.01 320.051C49.5895 248.072 21.4984 247.55 15.9245 158.372C10.3505 69.1935 -90.1264 -29.896 -90.1264 -29.896" stroke="url(#paint6_linear_3333_1690)" stroke-width="1.5"/>
<path opacity="0.142857" d="M174.915 554.754C177.886 455.464 176.393 389.68 111.84 320.433C47.2875 251.187 19.1977 251.798 10.9381 163.114C2.67842 74.4299 -100.725 -20.3115 -100.725 -20.3115" stroke="url(#paint7_linear_3333_1690)" stroke-width="1.5"/>
<path opacity="0.163265" d="M182.021 551.987C181.995 452.869 178.52 387.338 111.924 320.896C45.3283 254.455 17.2765 256.195 6.34859 168.105C-4.57935 80.0144 -110.768 -10.2824 -110.768 -10.2824" stroke="url(#paint8_linear_3333_1690)" stroke-width="1.5"/>
<path opacity="0.183673" d="M189.273 549.036C186.259 450.203 180.81 384.999 112.263 321.43C43.7162 257.861 15.739 260.726 2.16326 173.328C-11.4125 85.9294 -120.24 0.167978 -120.24 0.167978" stroke="url(#paint9_linear_3333_1690)" stroke-width="1.5"/>
<path opacity="0.204082" d="M196.672 545.897C190.679 447.459 183.269 382.657 112.864 322.024C42.4592 261.391 14.5928 265.375 -1.6073 178.766C-17.8074 92.1567 -129.127 11.0152 -129.127 11.0152" stroke="url(#paint10_linear_3333_1690)" stroke-width="1.5"/>
<path opacity="0.22449" d="M204.204 542.564C195.246 444.633 185.887 380.303 113.72 322.667C41.5528 265.03 13.8333 270.125 -4.9649 184.402C-23.7631 98.678 -137.425 22.2348 -137.425 22.2348" stroke="url(#paint11_linear_3333_1690)" stroke-width="1.5"/>
<path opacity="0.244898" d="M211.865 539.032C199.96 441.718 188.668 377.933 114.836 323.349C41.0037 268.765 13.467 274.961 -7.90007 190.218C-29.2672 105.475 -145.119 33.8019 -145.119 33.8019" stroke="url(#paint12_linear_3333_1690)" stroke-width="1.5"/>
<path opacity="0.265306" d="M219.655 535.297C204.822 438.708 191.615 375.539 116.217 324.06C40.8186 272.581 13.5002 279.868 -10.4038 196.198C-34.3077 112.529 -152.195 45.6922 -152.195 45.6922" stroke="url(#paint13_linear_3333_1690)" stroke-width="1.5"/>
<path opacity="0.285714" d="M227.555 531.352C209.818 435.597 194.717 373.114 117.852 324.788C40.9877 276.461 13.9226 284.826 -12.4833 202.322C-38.8893 119.818 -158.656 57.8775 -158.656 57.8775" stroke="url(#paint14_linear_3333_1690)" stroke-width="1.5"/>
<path opacity="0.306122" d="M235.574 527.197C214.961 432.382 197.986 370.654 119.757 325.524C41.5282 280.394 14.7513 289.824 -14.1191 208.576C-42.9894 127.328 -164.477 70.3358 -164.477 70.3358" stroke="url(#paint15_linear_3333_1690)" stroke-width="1.5"/>
<path opacity="0.326531" d="M243.694 522.825C220.234 429.055 201.411 368.15 121.92 326.256C42.4293 284.363 15.9747 294.842 -15.3199 214.939C-46.6144 135.035 -169.665 83.0382 -169.665 83.0382" stroke="url(#paint16_linear_3333_1690)" stroke-width="1.5"/>
<path opacity="0.346939" d="M251.916 518.234C225.643 425.614 204.997 365.598 124.349 326.976C43.6996 288.354 17.6012 299.867 -16.0747 221.395C-49.7505 142.922 -174.203 95.9607 -174.203 95.9607" stroke="url(#paint17_linear_3333_1690)" stroke-width="1.5"/>
<path opacity="0.367347" d="M260.226 513.418C231.175 422.05 208.736 362.989 127.034 327.67C45.3313 292.351 19.6224 304.88 -16.3894 227.924C-52.4012 150.967 -178.095 109.075 -178.095 109.075" stroke="url(#paint18_linear_3333_1690)" stroke-width="1.5"/>
<path opacity="0.387755" d="M268.62 508.376C236.831 418.36 212.628 360.319 129.978 328.33C47.3282 296.341 22.0412 309.867 -16.2585 234.51C-54.5582 159.152 -181.331 122.356 -181.331 122.356" stroke="url(#paint19_linear_3333_1690)" stroke-width="1.5"/>
<path opacity="0.408163" d="M277.096 503.106C242.611 414.541 216.676 357.584 133.185 328.947C49.693 300.31 24.8602 314.814 -15.677 241.136C-56.2142 167.458 -183.903 135.778 -183.903 135.778" stroke="url(#paint20_linear_3333_1690)" stroke-width="1.5"/>
<path opacity="0.428571" d="M285.638 497.595C248.503 410.578 220.87 354.765 136.643 329.499C52.4171 304.234 28.0697 319.693 -14.6522 247.773C-57.3741 175.853 -185.817 149.304 -185.817 149.304" stroke="url(#paint21_linear_3333_1690)" stroke-width="1.5"/>
<path opacity="0.44898" d="M294.247 491.857C254.51 406.483 225.214 351.875 140.36 329.995C55.5062 308.114 31.6748 324.507 -13.1767 254.421C-58.0283 184.335 -187.061 162.925 -187.061 162.925" stroke="url(#paint22_linear_3333_1690)" stroke-width="1.5"/>
<path opacity="0.469388" d="M302.907 485.881C260.62 402.243 229.699 348.898 144.325 330.413C58.9505 311.927 35.6651 329.23 -11.2587 261.052C-58.1825 192.875 -187.642 176.604 -187.642 176.604" stroke="url(#paint23_linear_3333_1690)" stroke-width="1.5"/>
<path opacity="0.489796" d="M311.613 479.67C266.828 397.858 234.322 345.834 148.535 330.749C62.7472 315.665 40.0369 333.852 -8.89965 267.654C-57.8362 201.456 -187.56 190.32 -187.56 190.32" stroke="url(#paint24_linear_3333_1690)" stroke-width="1.5"/>
<path opacity="0.510204" d="M320.367 473.219C273.142 393.322 239.091 342.674 152.998 330.992C66.9051 319.309 44.7983 338.355 -6.08944 274.206C-56.9772 210.057 -186.803 204.043 -186.803 204.043" stroke="url(#paint25_linear_3333_1690)" stroke-width="1.5"/>
<path opacity="0.530612" d="M329.151 466.526C279.544 388.63 243.992 339.412 157.7 331.129C71.409 322.845 49.9332 342.724 -2.84208 280.69C-55.6173 218.657 -185.383 217.747 -185.383 217.747" stroke="url(#paint26_linear_3333_1690)" stroke-width="1.5"/>
<path opacity="0.55102" d="M337.964 459.593C286.038 383.781 249.028 336.045 162.645 331.154C76.2626 326.263 55.4442 346.945 0.846964 287.091C-53.7503 227.236 -183.296 231.407 -183.296 231.407" stroke="url(#paint27_linear_3333_1690)" stroke-width="1.5"/>
<path opacity="0.571429" d="M346.793 452.417C292.61 378.77 254.188 332.566 167.821 331.056C81.4537 329.545 61.3184 351.003 4.96661 293.389C-51.3852 235.775 -180.55 244.995 -180.55 244.995" stroke="url(#paint28_linear_3333_1690)" stroke-width="1.5"/>
<path opacity="0.591837" d="M355.628 444.996C299.256 373.593 259.47 328.969 173.224 330.824C86.9775 332.68 67.5501 354.882 9.51289 299.567C-48.5243 244.252 -177.15 258.485 -177.15 258.485" stroke="url(#paint29_linear_3333_1690)" stroke-width="1.5"/>
<path opacity="0.612245" d="M364.474 437.336C305.983 368.253 264.88 325.255 178.86 330.457C92.8406 335.658 74.1447 358.575 14.493 305.614C-45.1587 252.654 -173.088 271.856 -173.088 271.856" stroke="url(#paint30_linear_3333_1690)" stroke-width="1.5"/>
<path opacity="0.632653" d="M373.317 429.433C312.776 362.742 270.406 321.415 184.718 329.939C99.0294 338.463 81.0879 362.062 19.8941 311.509C-41.2996 260.956 -168.378 285.079 -168.378 285.079" stroke="url(#paint31_linear_3333_1690)" stroke-width="1.5"/>
<path opacity="0.653061" d="M382.143 421.287C319.626 357.058 276.042 317.444 190.788 329.263C105.534 341.082 88.3685 365.331 25.7067 317.235C-36.9551 269.14 -163.028 298.128 -163.028 298.128" stroke="url(#paint32_linear_3333_1690)" stroke-width="1.5"/>
<path opacity="0.673469" d="M390.954 412.904C326.536 351.203 281.789 313.342 197.073 328.425C112.356 343.508 95.987 368.373 31.9326 322.782C-32.1219 277.191 -157.038 310.984 -157.038 310.984" stroke="url(#paint33_linear_3333_1690)" stroke-width="1.5"/>
<path opacity="0.693878" d="M399.734 404.279C333.493 345.171 287.637 309.101 203.559 327.413C119.481 345.724 103.928 371.172 38.5574 328.129C-26.813 285.086 -150.423 323.618 -150.423 323.618" stroke="url(#paint34_linear_3333_1690)" stroke-width="1.5"/>
<path opacity="0.714286" d="M408.48 395.416C340.494 338.961 293.584 304.719 210.244 326.22C126.905 347.72 112.186 373.716 45.5779 333.262C-21.0304 292.808 -143.188 336.007 -143.188 336.007" stroke="url(#paint35_linear_3333_1690)" stroke-width="1.5"/>
<path opacity="0.734694" d="M417.184 386.318C347.535 332.574 299.626 300.194 217.123 324.84C134.621 349.487 120.754 375.995 52.9867 338.168C-14.7804 300.342 -135.341 348.129 -135.341 348.129" stroke="url(#paint36_linear_3333_1690)" stroke-width="1.5"/>
<path opacity="0.755102" d="M425.843 376.985C354.612 326.006 305.762 295.519 224.193 323.265C142.624 351.012 129.625 377.996 60.7796 342.831C-8.06612 307.666 -126.887 359.959 -126.887 359.959" stroke="url(#paint37_linear_3333_1690)" stroke-width="1.5"/>
<path opacity="0.77551" d="M434.441 367.42C361.713 319.258 311.979 290.693 231.439 321.489C150.9 352.285 138.784 379.709 68.9408 347.237C-0.902346 314.766 -117.846 371.477 -117.846 371.477" stroke="url(#paint38_linear_3333_1690)" stroke-width="1.5"/>
<path opacity="0.795918" d="M442.979 357.627C368.84 312.329 318.28 285.715 238.864 319.506C159.447 353.297 148.228 381.124 77.469 351.375C6.71033 321.625 -108.22 382.66 -108.22 382.66" stroke="url(#paint39_linear_3333_1690)" stroke-width="1.5"/>
<path opacity="0.816327" d="M451.442 347.606C375.979 305.218 324.652 280.578 246.45 317.308C168.249 354.037 157.938 382.229 86.3471 355.227C14.7557 328.225 -98.028 393.487 -98.028 393.487" stroke="url(#paint40_linear_3333_1690)" stroke-width="1.5"/>
<path opacity="0.836735" d="M459.823 337.362C383.124 297.924 331.09 275.281 254.193 314.889C177.296 354.496 167.906 383.016 95.5655 358.783C23.2248 334.55 -87.2837 403.935 -87.2837 403.935" stroke="url(#paint41_linear_3333_1690)" stroke-width="1.5"/>
<path opacity="0.857143" d="M468.127 326.9C390.28 290.45 337.601 269.825 262.096 312.246C186.591 354.668 178.132 383.476 105.126 362.032C32.1199 340.588 -75.9878 413.988 -75.9878 413.988" stroke="url(#paint42_linear_3333_1690)" stroke-width="1.5"/>
<path opacity="0.877551" d="M476.334 316.22C397.432 282.792 344.168 264.201 270.14 309.37C196.112 354.538 188.593 383.598 115.006 364.958C41.4193 346.317 -64.1656 423.62 -64.1656 423.62" stroke="url(#paint43_linear_3333_1690)" stroke-width="1.5"/>
<path opacity="0.897959" d="M484.447 305.331C404.579 274.956 350.792 258.417 278.325 306.262C205.858 354.108 199.285 383.379 125.203 367.556C51.1202 351.732 -51.8237 432.821 -51.8237 432.821" stroke="url(#paint44_linear_3333_1690)" stroke-width="1.5"/>
<path opacity="0.918367" d="M492.45 294.233C411.709 266.938 357.461 252.463 286.636 302.912C215.81 353.362 210.191 382.807 135.698 369.808C61.2043 356.81 -38.9843 441.566 -38.9843 441.566" stroke="url(#paint45_linear_3333_1690)" stroke-width="1.5"/>
<path opacity="0.938776" d="M500.34 282.932C418.821 258.74 364.174 246.341 295.068 299.318C225.962 352.295 221.301 381.874 146.483 371.708C71.664 361.541 -25.6591 449.838 -25.6591 449.838" stroke="url(#paint46_linear_3333_1690)" stroke-width="1.5"/>
<path opacity="0.959184" d="M508.112 271.433C425.907 250.365 370.924 240.049 303.614 295.476C236.304 350.903 232.605 380.577 157.546 373.245C82.4876 365.913 -11.8639 457.622 -11.8639 457.622" stroke="url(#paint47_linear_3333_1690)" stroke-width="1.5"/>
<path opacity="0.979592" d="M515.763 259.74C432.966 241.812 377.71 233.587 312.269 291.382C246.828 349.177 244.094 378.906 168.88 374.408C93.667 369.911 2.38868 464.9 2.38868 464.9" stroke="url(#paint48_linear_3333_1690)" stroke-width="1.5"/>
<path d="M523.279 247.859C439.986 233.085 384.519 226.952 321.017 287.032C257.515 347.112 255.747 376.858 180.464 375.19C105.182 373.523 17.0741 471.658 17.0741 471.658" stroke="url(#paint49_linear_3333_1690)" stroke-width="1.5"/>
</g>
</g>
</g>
<defs>
<linearGradient id="paint0_linear_3333_1690" x1="133.699" y1="191.74" x2="-29.2239" y2="281.75" gradientUnits="userSpaceOnUse">
<stop stop-color="white" stop-opacity="0"/>
<stop offset="0.302083" stop-color="#C65398" stop-opacity="0.7"/>
<stop offset="0.526042" stop-color="#8675F3" stop-opacity="0.8"/>
<stop offset="0.776042" stop-color="#2788DE"/>
<stop offset="1" stop-color="white" stop-opacity="0"/>
</linearGradient>
<linearGradient id="paint1_linear_3333_1690" x1="128.194" y1="191.245" x2="-32.183" y2="287.158" gradientUnits="userSpaceOnUse">
<stop stop-color="white" stop-opacity="0"/>
<stop offset="0.302083" stop-color="#C65398" stop-opacity="0.7"/>
<stop offset="0.526042" stop-color="#8675F3" stop-opacity="0.8"/>
<stop offset="0.776042" stop-color="#2788DE"/>
<stop offset="1" stop-color="white" stop-opacity="0"/>
</linearGradient>
<linearGradient id="paint2_linear_3333_1690" x1="122.916" y1="191.04" x2="-34.6836" y2="292.837" gradientUnits="userSpaceOnUse">
<stop stop-color="white" stop-opacity="0"/>
<stop offset="0.302083" stop-color="#C65398" stop-opacity="0.7"/>
<stop offset="0.526042" stop-color="#8675F3" stop-opacity="0.8"/>
<stop offset="0.776042" stop-color="#2788DE"/>
<stop offset="1" stop-color="white" stop-opacity="0"/>
</linearGradient>
<linearGradient id="paint3_linear_3333_1690" x1="117.874" y1="191.112" x2="-36.7103" y2="298.763" gradientUnits="userSpaceOnUse">
<stop stop-color="white" stop-opacity="0"/>
<stop offset="0.302083" stop-color="#C65398" stop-opacity="0.7"/>
<stop offset="0.526042" stop-color="#8675F3" stop-opacity="0.8"/>
<stop offset="0.776042" stop-color="#2788DE"/>
<stop offset="1" stop-color="white" stop-opacity="0"/>
</linearGradient>
<linearGradient id="paint4_linear_3333_1690" x1="113.088" y1="191.452" x2="-38.2365" y2="304.917" gradientUnits="userSpaceOnUse">
<stop stop-color="white" stop-opacity="0"/>
<stop offset="0.302083" stop-color="#C65398" stop-opacity="0.7"/>
<stop offset="0.526042" stop-color="#8675F3" stop-opacity="0.8"/>
<stop offset="0.776042" stop-color="#2788DE"/>
<stop offset="1" stop-color="white" stop-opacity="0"/>
</linearGradient>
<linearGradient id="paint5_linear_3333_1690" x1="108.558" y1="192.051" x2="-39.2558" y2="311.277" gradientUnits="userSpaceOnUse">
<stop stop-color="white" stop-opacity="0"/>
<stop offset="0.302083" stop-color="#C65398" stop-opacity="0.7"/>
<stop offset="0.526042" stop-color="#8675F3" stop-opacity="0.8"/>
<stop offset="0.776042" stop-color="#2788DE"/>
<stop offset="1" stop-color="white" stop-opacity="0"/>
</linearGradient>
<linearGradient id="paint6_linear_3333_1690" x1="104.288" y1="192.894" x2="-39.7592" y2="317.812" gradientUnits="userSpaceOnUse">
<stop stop-color="white" stop-opacity="0"/>
<stop offset="0.302083" stop-color="#C65398" stop-opacity="0.7"/>
<stop offset="0.526042" stop-color="#8675F3" stop-opacity="0.8"/>
<stop offset="0.776042" stop-color="#2788DE"/>
<stop offset="1" stop-color="white" stop-opacity="0"/>
</linearGradient>
<linearGradient id="paint7_linear_3333_1690" x1="100.289" y1="193.971" x2="-39.7314" y2="324.501" gradientUnits="userSpaceOnUse">
<stop stop-color="white" stop-opacity="0"/>
<stop offset="0.302083" stop-color="#C65398" stop-opacity="0.7"/>
<stop offset="0.526042" stop-color="#8675F3" stop-opacity="0.8"/>
<stop offset="0.776042" stop-color="#2788DE"/>
<stop offset="1" stop-color="white" stop-opacity="0"/>
</linearGradient>
<linearGradient id="paint8_linear_3333_1690" x1="96.5672" y1="195.271" x2="-39.1621" y2="331.315" gradientUnits="userSpaceOnUse">
<stop stop-color="white" stop-opacity="0"/>
<stop offset="0.302083" stop-color="#C65398" stop-opacity="0.7"/>
<stop offset="0.526042" stop-color="#8675F3" stop-opacity="0.8"/>
<stop offset="0.776042" stop-color="#2788DE"/>
<stop offset="1" stop-color="white" stop-opacity="0"/>
</linearGradient>
<linearGradient id="paint9_linear_3333_1690" x1="93.1303" y1="196.783" x2="-38.0427" y2="338.227" gradientUnits="userSpaceOnUse">
<stop stop-color="white" stop-opacity="0"/>
<stop offset="0.302083" stop-color="#C65398" stop-opacity="0.7"/>
<stop offset="0.526042" stop-color="#8675F3" stop-opacity="0.8"/>
<stop offset="0.776042" stop-color="#2788DE"/>
<stop offset="1" stop-color="white" stop-opacity="0"/>
</linearGradient>
<linearGradient id="paint10_linear_3333_1690" x1="89.9879" y1="198.493" x2="-36.3623" y2="345.206" gradientUnits="userSpaceOnUse">
<stop stop-color="white" stop-opacity="0"/>
<stop offset="0.302083" stop-color="#C65398" stop-opacity="0.7"/>
<stop offset="0.526042" stop-color="#8675F3" stop-opacity="0.8"/>
<stop offset="0.776042" stop-color="#2788DE"/>
<stop offset="1" stop-color="white" stop-opacity="0"/>
</linearGradient>
<linearGradient id="paint11_linear_3333_1690" x1="87.1378" y1="200.39" x2="-34.1239" y2="352.223" gradientUnits="userSpaceOnUse">
<stop stop-color="white" stop-opacity="0"/>
<stop offset="0.302083" stop-color="#C65398" stop-opacity="0.7"/>
<stop offset="0.526042" stop-color="#8675F3" stop-opacity="0.8"/>
<stop offset="0.776042" stop-color="#2788DE"/>
<stop offset="1" stop-color="white" stop-opacity="0"/>
</linearGradient>
<linearGradient id="paint12_linear_3333_1690" x1="84.5894" y1="202.461" x2="-31.3205" y2="359.245" gradientUnits="userSpaceOnUse">
<stop stop-color="white" stop-opacity="0"/>
<stop offset="0.302083" stop-color="#C65398" stop-opacity="0.7"/>
<stop offset="0.526042" stop-color="#8675F3" stop-opacity="0.8"/>
<stop offset="0.776042" stop-color="#2788DE"/>
<stop offset="1" stop-color="white" stop-opacity="0"/>
</linearGradient>
<linearGradient id="paint13_linear_3333_1690" x1="82.3515" y1="204.695" x2="-27.9476" y2="366.244" gradientUnits="userSpaceOnUse">
<stop stop-color="white" stop-opacity="0"/>
<stop offset="0.302083" stop-color="#C65398" stop-opacity="0.7"/>
<stop offset="0.526042" stop-color="#8675F3" stop-opacity="0.8"/>
<stop offset="0.776042" stop-color="#2788DE"/>
<stop offset="1" stop-color="white" stop-opacity="0"/>
</linearGradient>
<linearGradient id="paint14_linear_3333_1690" x1="80.417" y1="207.076" x2="-24.0182" y2="373.183" gradientUnits="userSpaceOnUse">
<stop stop-color="white" stop-opacity="0"/>
<stop offset="0.302083" stop-color="#C65398" stop-opacity="0.7"/>
<stop offset="0.526042" stop-color="#8675F3" stop-opacity="0.8"/>
<stop offset="0.776042" stop-color="#2788DE"/>
<stop offset="1" stop-color="white" stop-opacity="0"/>
</linearGradient>
<linearGradient id="paint15_linear_3333_1690" x1="78.8057" y1="209.594" x2="-19.5204" y2="380.035" gradientUnits="userSpaceOnUse">
<stop stop-color="white" stop-opacity="0"/>
<stop offset="0.302083" stop-color="#C65398" stop-opacity="0.7"/>
<stop offset="0.526042" stop-color="#8675F3" stop-opacity="0.8"/>
<stop offset="0.776042" stop-color="#2788DE"/>
<stop offset="1" stop-color="white" stop-opacity="0"/>
</linearGradient>
<linearGradient id="paint16_linear_3333_1690" x1="77.5092" y1="212.235" x2="-14.4722" y2="386.765" gradientUnits="userSpaceOnUse">
<stop stop-color="white" stop-opacity="0"/>
<stop offset="0.302083" stop-color="#C65398" stop-opacity="0.7"/>
<stop offset="0.526042" stop-color="#8675F3" stop-opacity="0.8"/>
<stop offset="0.776042" stop-color="#2788DE"/>
<stop offset="1" stop-color="white" stop-opacity="0"/>
</linearGradient>
<linearGradient id="paint17_linear_3333_1690" x1="76.5391" y1="214.987" x2="-8.87412" y2="393.344" gradientUnits="userSpaceOnUse">
<stop stop-color="white" stop-opacity="0"/>
<stop offset="0.302083" stop-color="#C65398" stop-opacity="0.7"/>
<stop offset="0.526042" stop-color="#8675F3" stop-opacity="0.8"/>
<stop offset="0.776042" stop-color="#2788DE"/>
<stop offset="1" stop-color="white" stop-opacity="0"/>
</linearGradient>
<linearGradient id="paint18_linear_3333_1690" x1="75.8902" y1="217.835" x2="-2.7449" y2="399.738" gradientUnits="userSpaceOnUse">
<stop stop-color="white" stop-opacity="0"/>
<stop offset="0.302083" stop-color="#C65398" stop-opacity="0.7"/>
<stop offset="0.526042" stop-color="#8675F3" stop-opacity="0.8"/>
<stop offset="0.776042" stop-color="#2788DE"/>
<stop offset="1" stop-color="white" stop-opacity="0"/>
</linearGradient>
<linearGradient id="paint19_linear_3333_1690" x1="75.5689" y1="220.766" x2="3.90628" y2="405.92" gradientUnits="userSpaceOnUse">
<stop stop-color="white" stop-opacity="0"/>
<stop offset="0.302083" stop-color="#C65398" stop-opacity="0.7"/>
<stop offset="0.526042" stop-color="#8675F3" stop-opacity="0.8"/>
<stop offset="0.776042" stop-color="#2788DE"/>
<stop offset="1" stop-color="white" stop-opacity="0"/>
</linearGradient>
<linearGradient id="paint20_linear_3333_1690" x1="75.5812" y1="223.77" x2="11.0678" y2="411.862" gradientUnits="userSpaceOnUse">
<stop stop-color="white" stop-opacity="0"/>
<stop offset="0.302083" stop-color="#C65398" stop-opacity="0.7"/>
<stop offset="0.526042" stop-color="#8675F3" stop-opacity="0.8"/>
<stop offset="0.776042" stop-color="#2788DE"/>
<stop offset="1" stop-color="white" stop-opacity="0"/>
</linearGradient>
<linearGradient id="paint21_linear_3333_1690" x1="75.9209" y1="226.822" x2="18.7149" y2="417.525" gradientUnits="userSpaceOnUse">
<stop stop-color="white" stop-opacity="0"/>
<stop offset="0.302083" stop-color="#C65398" stop-opacity="0.7"/>
<stop offset="0.526042" stop-color="#8675F3" stop-opacity="0.8"/>
<stop offset="0.776042" stop-color="#2788DE"/>
<stop offset="1" stop-color="white" stop-opacity="0"/>
</linearGradient>
<linearGradient id="paint22_linear_3333_1690" x1="76.5969" y1="229.925" x2="26.8356" y2="422.902" gradientUnits="userSpaceOnUse">
<stop stop-color="white" stop-opacity="0"/>
<stop offset="0.302083" stop-color="#C65398" stop-opacity="0.7"/>
<stop offset="0.526042" stop-color="#8675F3" stop-opacity="0.8"/>
<stop offset="0.776042" stop-color="#2788DE"/>
<stop offset="1" stop-color="white" stop-opacity="0"/>
</linearGradient>
<linearGradient id="paint23_linear_3333_1690" x1="77.6024" y1="233.057" x2="35.4014" y2="427.96" gradientUnits="userSpaceOnUse">
<stop stop-color="white" stop-opacity="0"/>
<stop offset="0.302083" stop-color="#C65398" stop-opacity="0.7"/>
<stop offset="0.526042" stop-color="#8675F3" stop-opacity="0.8"/>
<stop offset="0.776042" stop-color="#2788DE"/>
<stop offset="1" stop-color="white" stop-opacity="0"/>
</linearGradient>
<linearGradient id="paint24_linear_3333_1690" x1="78.9373" y1="236.209" x2="44.3897" y2="432.681" gradientUnits="userSpaceOnUse">
<stop stop-color="white" stop-opacity="0"/>
<stop offset="0.302083" stop-color="#C65398" stop-opacity="0.7"/>
<stop offset="0.526042" stop-color="#8675F3" stop-opacity="0.8"/>
<stop offset="0.776042" stop-color="#2788DE"/>
<stop offset="1" stop-color="white" stop-opacity="0"/>
</linearGradient>
<linearGradient id="paint25_linear_3333_1690" x1="80.6137" y1="239.366" x2="53.7889" y2="437.044" gradientUnits="userSpaceOnUse">
<stop stop-color="white" stop-opacity="0"/>
<stop offset="0.302083" stop-color="#C65398" stop-opacity="0.7"/>
<stop offset="0.526042" stop-color="#8675F3" stop-opacity="0.8"/>
<stop offset="0.776042" stop-color="#2788DE"/>
<stop offset="1" stop-color="white" stop-opacity="0"/>
</linearGradient>
<linearGradient id="paint26_linear_3333_1690" x1="82.6194" y1="242.513" x2="63.5626" y2="441.031" gradientUnits="userSpaceOnUse">
<stop stop-color="white" stop-opacity="0"/>
<stop offset="0.302083" stop-color="#C65398" stop-opacity="0.7"/>
<stop offset="0.526042" stop-color="#8675F3" stop-opacity="0.8"/>
<stop offset="0.776042" stop-color="#2788DE"/>
<stop offset="1" stop-color="white" stop-opacity="0"/>
</linearGradient>
<linearGradient id="paint27_linear_3333_1690" x1="84.9609" y1="245.639" x2="73.6932" y2="444.629" gradientUnits="userSpaceOnUse">
<stop stop-color="white" stop-opacity="0"/>
<stop offset="0.302083" stop-color="#C65398" stop-opacity="0.7"/>
<stop offset="0.526042" stop-color="#8675F3" stop-opacity="0.8"/>
<stop offset="0.776042" stop-color="#2788DE"/>
<stop offset="1" stop-color="white" stop-opacity="0"/>
</linearGradient>
<linearGradient id="paint28_linear_3333_1690" x1="87.6293" y1="248.73" x2="84.1476" y2="447.823" gradientUnits="userSpaceOnUse">
<stop stop-color="white" stop-opacity="0"/>
<stop offset="0.302083" stop-color="#C65398" stop-opacity="0.7"/>
<stop offset="0.526042" stop-color="#8675F3" stop-opacity="0.8"/>
<stop offset="0.776042" stop-color="#2788DE"/>
<stop offset="1" stop-color="white" stop-opacity="0"/>
</linearGradient>
<linearGradient id="paint29_linear_3333_1690" x1="90.623" y1="251.77" x2="94.9001" y2="450.604" gradientUnits="userSpaceOnUse">
<stop stop-color="white" stop-opacity="0"/>
<stop offset="0.302083" stop-color="#C65398" stop-opacity="0.7"/>
<stop offset="0.526042" stop-color="#8675F3" stop-opacity="0.8"/>
<stop offset="0.776042" stop-color="#2788DE"/>
<stop offset="1" stop-color="white" stop-opacity="0"/>
</linearGradient>
<linearGradient id="paint30_linear_3333_1690" x1="93.9514" y1="254.755" x2="105.937" y2="452.97" gradientUnits="userSpaceOnUse">
<stop stop-color="white" stop-opacity="0"/>
<stop offset="0.302083" stop-color="#C65398" stop-opacity="0.7"/>
<stop offset="0.526042" stop-color="#8675F3" stop-opacity="0.8"/>
<stop offset="0.776042" stop-color="#2788DE"/>
<stop offset="1" stop-color="white" stop-opacity="0"/>
</linearGradient>
<linearGradient id="paint31_linear_3333_1690" x1="97.6043" y1="257.664" x2="117.226" y2="454.908" gradientUnits="userSpaceOnUse">
<stop stop-color="white" stop-opacity="0"/>
<stop offset="0.302083" stop-color="#C65398" stop-opacity="0.7"/>
<stop offset="0.526042" stop-color="#8675F3" stop-opacity="0.8"/>
<stop offset="0.776042" stop-color="#2788DE"/>
<stop offset="1" stop-color="white" stop-opacity="0"/>
</linearGradient>
<linearGradient id="paint32_linear_3333_1690" x1="101.575" y1="260.487" x2="128.738" y2="456.418" gradientUnits="userSpaceOnUse">
<stop stop-color="white" stop-opacity="0"/>
<stop offset="0.302083" stop-color="#C65398" stop-opacity="0.7"/>
<stop offset="0.526042" stop-color="#8675F3" stop-opacity="0.8"/>
<stop offset="0.776042" stop-color="#2788DE"/>
<stop offset="1" stop-color="white" stop-opacity="0"/>
</linearGradient>
<linearGradient id="paint33_linear_3333_1690" x1="105.867" y1="263.215" x2="140.458" y2="457.502" gradientUnits="userSpaceOnUse">
<stop stop-color="white" stop-opacity="0"/>
<stop offset="0.302083" stop-color="#C65398" stop-opacity="0.7"/>
<stop offset="0.526042" stop-color="#8675F3" stop-opacity="0.8"/>
<stop offset="0.776042" stop-color="#2788DE"/>
<stop offset="1" stop-color="white" stop-opacity="0"/>
</linearGradient>
<linearGradient id="paint34_linear_3333_1690" x1="110.471" y1="265.832" x2="152.356" y2="458.155" gradientUnits="userSpaceOnUse">
<stop stop-color="white" stop-opacity="0"/>
<stop offset="0.302083" stop-color="#C65398" stop-opacity="0.7"/>
<stop offset="0.526042" stop-color="#8675F3" stop-opacity="0.8"/>
<stop offset="0.776042" stop-color="#2788DE"/>
<stop offset="1" stop-color="white" stop-opacity="0"/>
</linearGradient>
<linearGradient id="paint35_linear_3333_1690" x1="115.384" y1="268.327" x2="164.415" y2="458.381" gradientUnits="userSpaceOnUse">
<stop stop-color="white" stop-opacity="0"/>
<stop offset="0.302083" stop-color="#C65398" stop-opacity="0.7"/>
<stop offset="0.526042" stop-color="#8675F3" stop-opacity="0.8"/>
<stop offset="0.776042" stop-color="#2788DE"/>
<stop offset="1" stop-color="white" stop-opacity="0"/>
</linearGradient>
<linearGradient id="paint36_linear_3333_1690" x1="120.604" y1="270.689" x2="176.616" y2="458.185" gradientUnits="userSpaceOnUse">
<stop stop-color="white" stop-opacity="0"/>
<stop offset="0.302083" stop-color="#C65398" stop-opacity="0.7"/>
<stop offset="0.526042" stop-color="#8675F3" stop-opacity="0.8"/>
<stop offset="0.776042" stop-color="#2788DE"/>
<stop offset="1" stop-color="white" stop-opacity="0"/>
</linearGradient>
<linearGradient id="paint37_linear_3333_1690" x1="126.128" y1="272.906" x2="188.943" y2="457.568" gradientUnits="userSpaceOnUse">
<stop stop-color="white" stop-opacity="0"/>
<stop offset="0.302083" stop-color="#C65398" stop-opacity="0.7"/>
<stop offset="0.526042" stop-color="#8675F3" stop-opacity="0.8"/>
<stop offset="0.776042" stop-color="#2788DE"/>
<stop offset="1" stop-color="white" stop-opacity="0"/>
</linearGradient>
<linearGradient id="paint38_linear_3333_1690" x1="131.946" y1="274.967" x2="201.372" y2="456.538" gradientUnits="userSpaceOnUse">
<stop stop-color="white" stop-opacity="0"/>
<stop offset="0.302083" stop-color="#C65398" stop-opacity="0.7"/>
<stop offset="0.526042" stop-color="#8675F3" stop-opacity="0.8"/>
<stop offset="0.776042" stop-color="#2788DE"/>
<stop offset="1" stop-color="white" stop-opacity="0"/>
</linearGradient>
<linearGradient id="paint39_linear_3333_1690" x1="138.057" y1="276.862" x2="213.897" y2="455.1" gradientUnits="userSpaceOnUse">
<stop stop-color="white" stop-opacity="0"/>
<stop offset="0.302083" stop-color="#C65398" stop-opacity="0.7"/>
<stop offset="0.526042" stop-color="#8675F3" stop-opacity="0.8"/>
<stop offset="0.776042" stop-color="#2788DE"/>
<stop offset="1" stop-color="white" stop-opacity="0"/>
</linearGradient>
<linearGradient id="paint40_linear_3333_1690" x1="144.449" y1="278.578" x2="226.494" y2="453.26" gradientUnits="userSpaceOnUse">
<stop stop-color="white" stop-opacity="0"/>
<stop offset="0.302083" stop-color="#C65398" stop-opacity="0.7"/>
<stop offset="0.526042" stop-color="#8675F3" stop-opacity="0.8"/>
<stop offset="0.776042" stop-color="#2788DE"/>
<stop offset="1" stop-color="white" stop-opacity="0"/>
</linearGradient>
<linearGradient id="paint41_linear_3333_1690" x1="151.116" y1="280.105" x2="239.151" y2="451.024" gradientUnits="userSpaceOnUse">
<stop stop-color="white" stop-opacity="0"/>
<stop offset="0.302083" stop-color="#C65398" stop-opacity="0.7"/>
<stop offset="0.526042" stop-color="#8675F3" stop-opacity="0.8"/>
<stop offset="0.776042" stop-color="#2788DE"/>
<stop offset="1" stop-color="white" stop-opacity="0"/>
</linearGradient>
<linearGradient id="paint42_linear_3333_1690" x1="158.063" y1="281.436" x2="251.87" y2="448.401" gradientUnits="userSpaceOnUse">
<stop stop-color="white" stop-opacity="0"/>
<stop offset="0.302083" stop-color="#C65398" stop-opacity="0.7"/>
<stop offset="0.526042" stop-color="#8675F3" stop-opacity="0.8"/>
<stop offset="0.776042" stop-color="#2788DE"/>
<stop offset="1" stop-color="white" stop-opacity="0"/>
</linearGradient>
<linearGradient id="paint43_linear_3333_1690" x1="165.271" y1="282.556" x2="264.628" y2="445.394" gradientUnits="userSpaceOnUse">
<stop stop-color="white" stop-opacity="0"/>
<stop offset="0.302083" stop-color="#C65398" stop-opacity="0.7"/>
<stop offset="0.526042" stop-color="#8675F3" stop-opacity="0.8"/>
<stop offset="0.776042" stop-color="#2788DE"/>
<stop offset="1" stop-color="white" stop-opacity="0"/>
</linearGradient>
<linearGradient id="paint44_linear_3333_1690" x1="172.742" y1="283.463" x2="277.424" y2="442.015" gradientUnits="userSpaceOnUse">
<stop stop-color="white" stop-opacity="0"/>
<stop offset="0.302083" stop-color="#C65398" stop-opacity="0.7"/>
<stop offset="0.526042" stop-color="#8675F3" stop-opacity="0.8"/>
<stop offset="0.776042" stop-color="#2788DE"/>
<stop offset="1" stop-color="white" stop-opacity="0"/>
</linearGradient>
<linearGradient id="paint45_linear_3333_1690" x1="180.459" y1="284.141" x2="290.243" y2="438.266" gradientUnits="userSpaceOnUse">
<stop stop-color="white" stop-opacity="0"/>
<stop offset="0.302083" stop-color="#C65398" stop-opacity="0.7"/>
<stop offset="0.526042" stop-color="#8675F3" stop-opacity="0.8"/>
<stop offset="0.776042" stop-color="#2788DE"/>
<stop offset="1" stop-color="white" stop-opacity="0"/>
</linearGradient>
<linearGradient id="paint46_linear_3333_1690" x1="188.419" y1="284.583" x2="303.082" y2="434.153" gradientUnits="userSpaceOnUse">
<stop stop-color="white" stop-opacity="0"/>
<stop offset="0.302083" stop-color="#C65398" stop-opacity="0.7"/>
<stop offset="0.526042" stop-color="#8675F3" stop-opacity="0.8"/>
<stop offset="0.776042" stop-color="#2788DE"/>
<stop offset="1" stop-color="white" stop-opacity="0"/>
</linearGradient>
<linearGradient id="paint47_linear_3333_1690" x1="196.615" y1="284.783" x2="315.935" y2="429.683" gradientUnits="userSpaceOnUse">
<stop stop-color="white" stop-opacity="0"/>
<stop offset="0.302083" stop-color="#C65398" stop-opacity="0.7"/>
<stop offset="0.526042" stop-color="#8675F3" stop-opacity="0.8"/>
<stop offset="0.776042" stop-color="#2788DE"/>
<stop offset="1" stop-color="white" stop-opacity="0"/>
</linearGradient>
<linearGradient id="paint48_linear_3333_1690" x1="205.042" y1="284.729" x2="328.799" y2="424.859" gradientUnits="userSpaceOnUse">
<stop stop-color="white" stop-opacity="0"/>
<stop offset="0.302083" stop-color="#C65398" stop-opacity="0.7"/>
<stop offset="0.526042" stop-color="#8675F3" stop-opacity="0.8"/>
<stop offset="0.776042" stop-color="#2788DE"/>
<stop offset="1" stop-color="white" stop-opacity="0"/>
</linearGradient>
<linearGradient id="paint49_linear_3333_1690" x1="213.683" y1="284.415" x2="341.664" y2="419.686" gradientUnits="userSpaceOnUse">
<stop stop-color="white" stop-opacity="0"/>
<stop offset="0.302083" stop-color="#C65398" stop-opacity="0.7"/>
<stop offset="0.526042" stop-color="#8675F3" stop-opacity="0.8"/>
<stop offset="0.776042" stop-color="#2788DE"/>
<stop offset="1" stop-color="white" stop-opacity="0"/>
</linearGradient>
</defs>
</svg>
