<svg width="20" height="20" viewBox="0 0 20 20" fill="none" xmlns="http://www.w3.org/2000/svg">
<g clip-path="url(#clip0_3333_1829)">
<path d="M8.33333 2.5V4.16667H4.16667V15.8333H15.8333V11.6667H17.5V16.6667C17.5 16.8877 17.4122 17.0996 17.2559 17.2559C17.0996 17.4122 16.8877 17.5 16.6667 17.5H3.33333C3.11232 17.5 2.90036 17.4122 2.74408 17.2559C2.5878 17.0996 2.5 16.8877 2.5 16.6667V3.33333C2.5 3.11232 2.5878 2.90036 2.74408 2.74408C2.90036 2.5878 3.11232 2.5 3.33333 2.5H8.33333ZM14.7558 6.4225L10 11.1783L8.82167 10L13.5775 5.24417L10.8333 2.5H17.5V9.16667L14.7558 6.4225Z" fill="url(#paint0_linear_3333_1829)"/>
</g>
<defs>
<linearGradient id="paint0_linear_3333_1829" x1="-26" y1="21.5" x2="-9.73081" y2="-12.8094" gradientUnits="userSpaceOnUse">
<stop stop-color="#C65398"/>
<stop offset="0.526042" stop-color="#8675F3"/>
<stop offset="1" stop-color="#2788DE"/>
</linearGradient>
<clipPath id="clip0_3333_1829">
<rect width="20" height="20" fill="white"/>
</clipPath>
</defs>
</svg>
